<?xml version="1.0" encoding="UTF-8" standalone="no"?>
<!DOCTYPE svg PUBLIC "-//W3C//DTD SVG 1.1//EN"
 "http://www.w3.org/Graphics/SVG/1.1/DTD/svg11.dtd">
<!-- Generated by graphviz version 3.0.0 (20221109.1736)
 -->
<!-- Title: Lvl3Mage.CameraManagement2D.CameraController Pages: 1 -->
<svg width="478pt" height="186pt"
 viewBox="0.00 0.00 478.00 186.00" xmlns="http://www.w3.org/2000/svg" xmlns:xlink="http://www.w3.org/1999/xlink">
<g id="graph0" class="graph" transform="scale(1 1) rotate(0) translate(4 182)">
<title>Lvl3Mage.CameraManagement2D.CameraController</title>
<polygon fill="white" stroke="transparent" points="-4,4 -4,-182 474,-182 474,4 -4,4"/>
<!-- Node1 -->
<g id="node1" class="node">
<title>Node1</title>
<g id="a_node1"><a xlink:title="An abstract base class for camera controllers.">
<polygon fill="#bfbfbf" stroke="black" points="120,-73.5 120,-103.5 277,-103.5 277,-73.5 120,-73.5"/>
<text text-anchor="start" x="128" y="-91.5" font-family="Helvetica,sans-Serif" font-size="10.00">Lvl3Mage.CameraManagement2</text>
<text text-anchor="middle" x="198.5" y="-80.5" font-family="Helvetica,sans-Serif" font-size="10.00">D.CameraController</text>
</a>
</g>
</g>
<!-- Node3 -->
<g id="node3" class="node">
<title>Node3</title>
<g id="a_node3"><a xlink:href="a00052.html" target="_top" xlink:title="Manages multiple camera controllers, allowing switching between them.">
<polygon fill="white" stroke="black" points="313,-147.5 313,-177.5 470,-177.5 470,-147.5 313,-147.5"/>
<text text-anchor="start" x="321" y="-165.5" font-family="Helvetica,sans-Serif" font-size="10.00">Lvl3Mage.CameraManagement2</text>
<text text-anchor="middle" x="391.5" y="-154.5" font-family="Helvetica,sans-Serif" font-size="10.00">D.CameraModuleManager</text>
</a>
</g>
</g>
<!-- Node1&#45;&gt;Node3 -->
<g id="edge2" class="edge">
<title>Node1&#45;&gt;Node3</title>
<path fill="none" stroke="midnightblue" d="M240.5,-107.92C261.87,-117.69 288.58,-129.37 313,-138.5 321.31,-141.61 330.23,-144.64 338.94,-147.44"/>
<polygon fill="midnightblue" stroke="midnightblue" points="241.93,-104.73 231.38,-103.72 239,-111.08 241.93,-104.73"/>
</g>
<!-- Node4 -->
<g id="node4" class="node">
<title>Node4</title>
<g id="a_node4"><a xlink:href="a00056.html" target="_top" xlink:title="A camera controller module that allows for panning and zooming of the camera based on user input.">
<polygon fill="white" stroke="black" points="313,-98.5 313,-128.5 470,-128.5 470,-98.5 313,-98.5"/>
<text text-anchor="start" x="321" y="-116.5" font-family="Helvetica,sans-Serif" font-size="10.00">Lvl3Mage.CameraManagement2</text>
<text text-anchor="middle" x="391.5" y="-105.5" font-family="Helvetica,sans-Serif" font-size="10.00">D.CameraPanModule</text>
</a>
</g>
</g>
<!-- Node1&#45;&gt;Node4 -->
<g id="edge3" class="edge">
<title>Node1&#45;&gt;Node4</title>
<path fill="none" stroke="midnightblue" d="M287.19,-99.98C295.76,-101.1 304.42,-102.23 312.88,-103.34"/>
<polygon fill="midnightblue" stroke="midnightblue" points="287.56,-96.5 277.19,-98.67 286.65,-103.44 287.56,-96.5"/>
</g>
<!-- Node5 -->
<g id="node5" class="node">
<title>Node5</title>
<g id="a_node5"><a xlink:href="a00060.html" target="_top" xlink:title="A module for smoothing camera movement, including position, zoom, and rotation. This class extends th...">
<polygon fill="white" stroke="black" points="313,-49.5 313,-79.5 470,-79.5 470,-49.5 313,-49.5"/>
<text text-anchor="start" x="321" y="-67.5" font-family="Helvetica,sans-Serif" font-size="10.00">Lvl3Mage.CameraManagement2</text>
<text text-anchor="middle" x="391.5" y="-56.5" font-family="Helvetica,sans-Serif" font-size="10.00">D.CameraSmoothingModule</text>
</a>
</g>
</g>
<!-- Node1&#45;&gt;Node5 -->
<g id="edge4" class="edge">
<title>Node1&#45;&gt;Node5</title>
<path fill="none" stroke="midnightblue" d="M287.19,-77.48C295.76,-76.4 304.42,-75.32 312.88,-74.25"/>
<polygon fill="midnightblue" stroke="midnightblue" points="286.67,-74.02 277.19,-78.74 287.55,-80.96 286.67,-74.02"/>
</g>
<!-- Node6 -->
<g id="node6" class="node">
<title>Node6</title>
<g id="a_node6"><a xlink:href="a00076.html" target="_top" xlink:title="A camera module that tracks multiple objects and adjusts the camera&#39;s state to ensure all tracked obj...">
<polygon fill="white" stroke="black" points="313,-0.5 313,-30.5 470,-30.5 470,-0.5 313,-0.5"/>
<text text-anchor="start" x="321" y="-18.5" font-family="Helvetica,sans-Serif" font-size="10.00">Lvl3Mage.CameraManagement2</text>
<text text-anchor="middle" x="391.5" y="-7.5" font-family="Helvetica,sans-Serif" font-size="10.00">D.TrackerCameraModule</text>
</a>
</g>
</g>
<!-- Node1&#45;&gt;Node6 -->
<g id="edge5" class="edge">
<title>Node1&#45;&gt;Node6</title>
<path fill="none" stroke="midnightblue" d="M241.28,-69.19C262.54,-59.69 288.91,-48.4 313,-39.5 321.32,-36.42 330.24,-33.41 338.96,-30.61"/>
<polygon fill="midnightblue" stroke="midnightblue" points="239.59,-66.11 231.9,-73.41 242.46,-72.49 239.59,-66.11"/>
</g>
<!-- Node2 -->
<g id="node2" class="node">
<title>Node2</title>
<g id="a_node2"><a xlink:title=" ">
<polygon fill="white" stroke="#bfbfbf" points="0,-79 0,-98 84,-98 84,-79 0,-79"/>
<text text-anchor="middle" x="42" y="-86" font-family="Helvetica,sans-Serif" font-size="10.00">MonoBehaviour</text>
</a>
</g>
</g>
<!-- Node2&#45;&gt;Node1 -->
<g id="edge1" class="edge">
<title>Node2&#45;&gt;Node1</title>
<path fill="none" stroke="midnightblue" d="M94.49,-88.5C102.67,-88.5 111.27,-88.5 119.89,-88.5"/>
<polygon fill="midnightblue" stroke="midnightblue" points="94.4,-85 84.4,-88.5 94.4,-92 94.4,-85"/>
</g>
</g>
</svg>
