<?xml version="1.0" encoding="UTF-8" standalone="no"?>
<!DOCTYPE svg PUBLIC "-//W3C//DTD SVG 1.1//EN"
 "http://www.w3.org/Graphics/SVG/1.1/DTD/svg11.dtd">
<!-- Generated by graphviz version 3.0.0 (20221109.1736)
 -->
<!-- Title: CameraManagement2D.CameraController Pages: 1 -->
<svg width="474pt" height="186pt"
 viewBox="0.00 0.00 474.00 186.00" xmlns="http://www.w3.org/2000/svg" xmlns:xlink="http://www.w3.org/1999/xlink">
<g id="graph0" class="graph" transform="scale(1 1) rotate(0) translate(4 182)">
<title>CameraManagement2D.CameraController</title>
<polygon fill="white" stroke="transparent" points="-4,4 -4,-182 470,-182 470,4 -4,4"/>
<!-- Node1 -->
<g id="node1" class="node">
<title>Node1</title>
<g id="a_node1"><a xlink:title="An abstract base class for camera controllers.">
<polygon fill="#bfbfbf" stroke="black" points="120,-73.5 120,-103.5 275,-103.5 275,-73.5 120,-73.5"/>
<text text-anchor="start" x="128" y="-91.5" font-family="Helvetica,sans-Serif" font-size="10.00">CameraManagement2D.Camera</text>
<text text-anchor="middle" x="197.5" y="-80.5" font-family="Helvetica,sans-Serif" font-size="10.00">Controller</text>
</a>
</g>
</g>
<!-- Node3 -->
<g id="node3" class="node">
<title>Node3</title>
<g id="a_node3"><a xlink:href="a00048.html" target="_top" xlink:title="Manages multiple camera controllers, allowing switching between them.">
<polygon fill="white" stroke="black" points="311,-147.5 311,-177.5 466,-177.5 466,-147.5 311,-147.5"/>
<text text-anchor="start" x="319" y="-165.5" font-family="Helvetica,sans-Serif" font-size="10.00">CameraManagement2D.Camera</text>
<text text-anchor="middle" x="388.5" y="-154.5" font-family="Helvetica,sans-Serif" font-size="10.00">ModuleManager</text>
</a>
</g>
</g>
<!-- Node1&#45;&gt;Node3 -->
<g id="edge2" class="edge">
<title>Node1&#45;&gt;Node3</title>
<path fill="none" stroke="midnightblue" d="M239.42,-108.04C260.55,-117.78 286.9,-129.4 311,-138.5 319.2,-141.6 328,-144.63 336.61,-147.43"/>
<polygon fill="midnightblue" stroke="midnightblue" points="240.64,-104.75 230.1,-103.71 237.69,-111.1 240.64,-104.75"/>
</g>
<!-- Node4 -->
<g id="node4" class="node">
<title>Node4</title>
<g id="a_node4"><a xlink:href="a00052.html" target="_top" xlink:title="A camera controller module that allows for panning and zooming of the camera based on user input.">
<polygon fill="white" stroke="black" points="311,-98.5 311,-128.5 466,-128.5 466,-98.5 311,-98.5"/>
<text text-anchor="start" x="319" y="-116.5" font-family="Helvetica,sans-Serif" font-size="10.00">CameraManagement2D.Camera</text>
<text text-anchor="middle" x="388.5" y="-105.5" font-family="Helvetica,sans-Serif" font-size="10.00">PanModule</text>
</a>
</g>
</g>
<!-- Node1&#45;&gt;Node4 -->
<g id="edge3" class="edge">
<title>Node1&#45;&gt;Node4</title>
<path fill="none" stroke="midnightblue" d="M285.1,-99.96C293.67,-101.09 302.33,-102.23 310.79,-103.35"/>
<polygon fill="midnightblue" stroke="midnightblue" points="285.47,-96.47 275.1,-98.63 284.56,-103.41 285.47,-96.47"/>
</g>
<!-- Node5 -->
<g id="node5" class="node">
<title>Node5</title>
<g id="a_node5"><a xlink:href="a00056.html" target="_top" xlink:title="A module for smoothing camera movement, including position, zoom, and rotation. This class extends th...">
<polygon fill="white" stroke="black" points="311,-49.5 311,-79.5 466,-79.5 466,-49.5 311,-49.5"/>
<text text-anchor="start" x="319" y="-67.5" font-family="Helvetica,sans-Serif" font-size="10.00">CameraManagement2D.Camera</text>
<text text-anchor="middle" x="388.5" y="-56.5" font-family="Helvetica,sans-Serif" font-size="10.00">SmoothingModule</text>
</a>
</g>
</g>
<!-- Node1&#45;&gt;Node5 -->
<g id="edge4" class="edge">
<title>Node1&#45;&gt;Node5</title>
<path fill="none" stroke="midnightblue" d="M285.1,-77.5C293.67,-76.41 302.33,-75.32 310.79,-74.24"/>
<polygon fill="midnightblue" stroke="midnightblue" points="284.58,-74.04 275.1,-78.77 285.46,-80.99 284.58,-74.04"/>
</g>
<!-- Node6 -->
<g id="node6" class="node">
<title>Node6</title>
<g id="a_node6"><a xlink:href="a00068.html" target="_top" xlink:title="A camera module that tracks multiple objects and adjusts the camera&#39;s state to ensure all tracked obj...">
<polygon fill="white" stroke="black" points="311.5,-0.5 311.5,-30.5 465.5,-30.5 465.5,-0.5 311.5,-0.5"/>
<text text-anchor="start" x="319.5" y="-18.5" font-family="Helvetica,sans-Serif" font-size="10.00">CameraManagement2D.Tracker</text>
<text text-anchor="middle" x="388.5" y="-7.5" font-family="Helvetica,sans-Serif" font-size="10.00">CameraModule</text>
</a>
</g>
</g>
<!-- Node1&#45;&gt;Node6 -->
<g id="edge5" class="edge">
<title>Node1&#45;&gt;Node6</title>
<path fill="none" stroke="midnightblue" d="M239.91,-69.2C260.98,-59.71 287.12,-48.42 311,-39.5 319.22,-36.43 328.02,-33.42 336.63,-30.62"/>
<polygon fill="midnightblue" stroke="midnightblue" points="238.28,-66.1 230.62,-73.42 241.17,-72.47 238.28,-66.1"/>
</g>
<!-- Node2 -->
<g id="node2" class="node">
<title>Node2</title>
<g id="a_node2"><a xlink:title=" ">
<polygon fill="white" stroke="#bfbfbf" points="0,-79 0,-98 84,-98 84,-79 0,-79"/>
<text text-anchor="middle" x="42" y="-86" font-family="Helvetica,sans-Serif" font-size="10.00">MonoBehaviour</text>
</a>
</g>
</g>
<!-- Node2&#45;&gt;Node1 -->
<g id="edge1" class="edge">
<title>Node2&#45;&gt;Node1</title>
<path fill="none" stroke="midnightblue" d="M94.33,-88.5C102.58,-88.5 111.29,-88.5 119.98,-88.5"/>
<polygon fill="midnightblue" stroke="midnightblue" points="94.14,-85 84.14,-88.5 94.14,-92 94.14,-85"/>
</g>
</g>
</svg>
