<?xml version="1.0" encoding="UTF-8" standalone="no"?>
<!DOCTYPE svg PUBLIC "-//W3C//DTD SVG 1.1//EN"
 "http://www.w3.org/Graphics/SVG/1.1/DTD/svg11.dtd">
<!-- Generated by graphviz version 7.0.5 (20221223.1930)
 -->
<!-- Title: CameraManagement2D.TrackerCameraModule Pages: 1 -->
<svg width="162pt" height="148pt"
 viewBox="0.00 0.00 162.00 148.00" xmlns="http://www.w3.org/2000/svg" xmlns:xlink="http://www.w3.org/1999/xlink">
<g id="graph0" class="graph" transform="scale(1 1) rotate(0) translate(4 144)">
<title>CameraManagement2D.TrackerCameraModule</title>
<!-- Node1 -->
<g id="node1" class="node">
<title>Node1</title>
<g id="a_node1"><a xlink:title="A camera module that tracks multiple objects and adjusts the camera&#39;s state to ensure all tracked obj...">
<polygon fill="#999999" stroke="#666666" points="154,-30 0,-30 0,0 154,0 154,-30"/>
<text text-anchor="start" x="8" y="-18" font-family="Helvetica,sans-Serif" font-size="10.00">CameraManagement2D.Tracker</text>
<text text-anchor="middle" x="77" y="-7" font-family="Helvetica,sans-Serif" font-size="10.00">CameraModule</text>
</a>
</g>
</g>
<!-- Node2 -->
<g id="node2" class="node">
<title>Node2</title>
<g id="a_node2"><a xlink:href="class_camera_management2_d_1_1_camera_controller.html" target="_top" xlink:title="An abstract base class for camera controllers.">
<polygon fill="white" stroke="#666666" points="123,-85 31,-85 31,-66 123,-66 123,-85"/>
<text text-anchor="middle" x="77" y="-73" font-family="Helvetica,sans-Serif" font-size="10.00">CameraController</text>
</a>
</g>
</g>
<!-- Node2&#45;&gt;Node1 -->
<g id="edge1" class="edge">
<title>Node2&#45;&gt;Node1</title>
<path fill="none" stroke="#63b8ff" d="M77,-54.51C77,-46.49 77,-37.43 77,-30.11"/>
<polygon fill="#63b8ff" stroke="#63b8ff" points="73.5,-54.35 77,-64.35 80.5,-54.35 73.5,-54.35"/>
</g>
<!-- Node3 -->
<g id="node3" class="node">
<title>Node3</title>
<g id="a_node3"><a xlink:title=" ">
<polygon fill="white" stroke="#666666" points="119,-140 35,-140 35,-121 119,-121 119,-140"/>
<text text-anchor="middle" x="77" y="-128" font-family="Helvetica,sans-Serif" font-size="10.00">MonoBehaviour</text>
</a>
</g>
</g>
<!-- Node3&#45;&gt;Node2 -->
<g id="edge2" class="edge">
<title>Node3&#45;&gt;Node2</title>
<path fill="none" stroke="#63b8ff" d="M77,-109.35C77,-101.1 77,-91.97 77,-85.44"/>
<polygon fill="#63b8ff" stroke="#63b8ff" points="73.5,-109.23 77,-119.23 80.5,-109.23 73.5,-109.23"/>
</g>
</g>
</svg>
