<?xml version="1.0" encoding="UTF-8" standalone="no"?>
<!DOCTYPE svg PUBLIC "-//W3C//DTD SVG 1.1//EN"
 "http://www.w3.org/Graphics/SVG/1.1/DTD/svg11.dtd">
<!-- Generated by graphviz version 7.0.5 (20221223.1930)
 -->
<!-- Title: CameraManagement2D.CameraController Pages: 1 -->
<svg width="474pt" height="182pt"
 viewBox="0.00 0.00 474.00 182.00" xmlns="http://www.w3.org/2000/svg" xmlns:xlink="http://www.w3.org/1999/xlink">
<g id="graph0" class="graph" transform="scale(1 1) rotate(0) translate(4 178)">
<title>CameraManagement2D.CameraController</title>
<!-- Node1 -->
<g id="node1" class="node">
<title>Node1</title>
<g id="a_node1"><a xlink:title="An abstract base class for camera controllers.">
<polygon fill="#999999" stroke="#666666" points="275,-102 120,-102 120,-72 275,-72 275,-102"/>
<text text-anchor="start" x="128" y="-90" font-family="Helvetica,sans-Serif" font-size="10.00">CameraManagement2D.Camera</text>
<text text-anchor="middle" x="197.5" y="-79" font-family="Helvetica,sans-Serif" font-size="10.00">Controller</text>
</a>
</g>
</g>
<!-- Node3 -->
<g id="node3" class="node">
<title>Node3</title>
<g id="a_node3"><a xlink:href="class_camera_management2_d_1_1_camera_module_manager.html" target="_top" xlink:title="Manages multiple camera controllers, allowing switching between them.">
<polygon fill="white" stroke="#666666" points="466,-174 311,-174 311,-144 466,-144 466,-174"/>
<text text-anchor="start" x="319" y="-162" font-family="Helvetica,sans-Serif" font-size="10.00">CameraManagement2D.Camera</text>
<text text-anchor="middle" x="388.5" y="-151" font-family="Helvetica,sans-Serif" font-size="10.00">ModuleManager</text>
</a>
</g>
</g>
<!-- Node1&#45;&gt;Node3 -->
<g id="edge2" class="edge">
<title>Node1&#45;&gt;Node3</title>
<path fill="none" stroke="#63b8ff" d="M242.46,-106.96C263.08,-116 288.1,-126.55 311,-135 318.97,-137.94 327.48,-140.84 335.83,-143.56"/>
<polygon fill="#63b8ff" stroke="#63b8ff" points="244.06,-103.84 233.5,-102.99 241.23,-110.24 244.06,-103.84"/>
</g>
<!-- Node4 -->
<g id="node4" class="node">
<title>Node4</title>
<g id="a_node4"><a xlink:href="class_camera_management2_d_1_1_camera_pan_module.html" target="_top" xlink:title="A camera controller module that allows for panning and zooming of the camera based on user input.">
<polygon fill="white" stroke="#666666" points="466,-126 311,-126 311,-96 466,-96 466,-126"/>
<text text-anchor="start" x="319" y="-114" font-family="Helvetica,sans-Serif" font-size="10.00">CameraManagement2D.Camera</text>
<text text-anchor="middle" x="388.5" y="-103" font-family="Helvetica,sans-Serif" font-size="10.00">PanModule</text>
</a>
</g>
</g>
<!-- Node1&#45;&gt;Node4 -->
<g id="edge3" class="edge">
<title>Node1&#45;&gt;Node4</title>
<path fill="none" stroke="#63b8ff" d="M286.66,-98.19C294.69,-99.21 302.78,-100.24 310.69,-101.25"/>
<polygon fill="#63b8ff" stroke="#63b8ff" points="287.24,-94.74 276.88,-96.95 286.35,-101.68 287.24,-94.74"/>
</g>
<!-- Node5 -->
<g id="node5" class="node">
<title>Node5</title>
<g id="a_node5"><a xlink:href="class_camera_management2_d_1_1_camera_smoothing_module.html" target="_top" xlink:title="A module for smoothing camera movement, including position, zoom, and rotation. This class extends th...">
<polygon fill="white" stroke="#666666" points="466,-78 311,-78 311,-48 466,-48 466,-78"/>
<text text-anchor="start" x="319" y="-66" font-family="Helvetica,sans-Serif" font-size="10.00">CameraManagement2D.Camera</text>
<text text-anchor="middle" x="388.5" y="-55" font-family="Helvetica,sans-Serif" font-size="10.00">SmoothingModule</text>
</a>
</g>
</g>
<!-- Node1&#45;&gt;Node5 -->
<g id="edge4" class="edge">
<title>Node1&#45;&gt;Node5</title>
<path fill="none" stroke="#63b8ff" d="M286.66,-75.81C294.69,-74.79 302.78,-73.76 310.69,-72.75"/>
<polygon fill="#63b8ff" stroke="#63b8ff" points="286.35,-72.32 276.88,-77.05 287.24,-79.26 286.35,-72.32"/>
</g>
<!-- Node6 -->
<g id="node6" class="node">
<title>Node6</title>
<g id="a_node6"><a xlink:href="class_camera_management2_d_1_1_tracker_camera_module.html" target="_top" xlink:title="A camera module that tracks multiple objects and adjusts the camera&#39;s state to ensure all tracked obj...">
<polygon fill="white" stroke="#666666" points="465.5,-30 311.5,-30 311.5,0 465.5,0 465.5,-30"/>
<text text-anchor="start" x="319.5" y="-18" font-family="Helvetica,sans-Serif" font-size="10.00">CameraManagement2D.Tracker</text>
<text text-anchor="middle" x="388.5" y="-7" font-family="Helvetica,sans-Serif" font-size="10.00">CameraModule</text>
</a>
</g>
</g>
<!-- Node1&#45;&gt;Node6 -->
<g id="edge5" class="edge">
<title>Node1&#45;&gt;Node6</title>
<path fill="none" stroke="#63b8ff" d="M242.46,-67.04C263.08,-58 288.1,-47.45 311,-39 318.97,-36.06 327.48,-33.16 335.83,-30.44"/>
<polygon fill="#63b8ff" stroke="#63b8ff" points="241.23,-63.76 233.5,-71.01 244.06,-70.16 241.23,-63.76"/>
</g>
<!-- Node2 -->
<g id="node2" class="node">
<title>Node2</title>
<g id="a_node2"><a xlink:title=" ">
<polygon fill="white" stroke="#666666" points="84,-96.5 0,-96.5 0,-77.5 84,-77.5 84,-96.5"/>
<text text-anchor="middle" x="42" y="-84.5" font-family="Helvetica,sans-Serif" font-size="10.00">MonoBehaviour</text>
</a>
</g>
</g>
<!-- Node2&#45;&gt;Node1 -->
<g id="edge1" class="edge">
<title>Node2&#45;&gt;Node1</title>
<path fill="none" stroke="#63b8ff" d="M95.61,-87C103.39,-87 111.54,-87 119.69,-87"/>
<polygon fill="#63b8ff" stroke="#63b8ff" points="95.65,-83.5 85.65,-87 95.65,-90.5 95.65,-83.5"/>
</g>
</g>
</svg>
