<?xml version="1.0" encoding="UTF-8" standalone="no"?>
<!DOCTYPE svg PUBLIC "-//W3C//DTD SVG 1.1//EN"
 "http://www.w3.org/Graphics/SVG/1.1/DTD/svg11.dtd">
<!-- Generated by graphviz version 12.0.0 (20240704.0754)
 -->
<!-- Title: CameraManagement2D.CameraController Pages: 1 -->
<svg width="472pt" height="186pt"
 viewBox="0.00 0.00 471.50 185.50" xmlns="http://www.w3.org/2000/svg" xmlns:xlink="http://www.w3.org/1999/xlink">
<g id="graph0" class="graph" transform="scale(1 1) rotate(0) translate(4 181.5)">
<title>CameraManagement2D.CameraController</title>
<!-- Node1 -->
<g id="Node000001" class="node">
<title>Node1</title>
<g id="a_Node000001"><a xlink:title="An abstract base class for camera controllers.">
<polygon fill="#999999" stroke="#666666" points="273.5,-103.5 119.5,-103.5 119.5,-73 273.5,-73 273.5,-103.5"/>
<text text-anchor="start" x="127.5" y="-90" font-family="Helvetica,sans-Serif" font-size="10.00">CameraManagement2D.Camera</text>
<text text-anchor="middle" x="196.5" y="-78.75" font-family="Helvetica,sans-Serif" font-size="10.00">Controller</text>
</a>
</g>
</g>
<!-- Node3 -->
<g id="Node000003" class="node">
<title>Node3</title>
<g id="a_Node000003"><a xlink:href="class_camera_management2_d_1_1_camera_module_manager.html" target="_top" xlink:title="Manages multiple camera controllers, allowing switching between them.">
<polygon fill="white" stroke="#666666" points="463.5,-177.5 309.5,-177.5 309.5,-147 463.5,-147 463.5,-177.5"/>
<text text-anchor="start" x="317.5" y="-164" font-family="Helvetica,sans-Serif" font-size="10.00">CameraManagement2D.Camera</text>
<text text-anchor="middle" x="386.5" y="-152.75" font-family="Helvetica,sans-Serif" font-size="10.00">ModuleManager</text>
</a>
</g>
</g>
<!-- Node1&#45;&gt;Node3 -->
<g id="edge2_Node000001_Node000003" class="edge">
<title>Node1&#45;&gt;Node3</title>
<g id="a_edge2_Node000001_Node000003"><a xlink:title=" ">
<path fill="none" stroke="#63b8ff" d="M241.27,-108.55C261.8,-117.77 286.71,-128.54 309.5,-137.25 317.8,-140.42 326.71,-143.57 335.39,-146.51"/>
<polygon fill="#63b8ff" stroke="#63b8ff" points="242.91,-105.44 232.35,-104.51 240.02,-111.82 242.91,-105.44"/>
</a>
</g>
</g>
<!-- Node4 -->
<g id="Node000004" class="node">
<title>Node4</title>
<g id="a_Node000004"><a xlink:href="class_camera_management2_d_1_1_camera_pan_module.html" target="_top" xlink:title="A camera controller module that allows for panning and zooming of the camera based on user input.">
<polygon fill="white" stroke="#666666" points="463.5,-128.5 309.5,-128.5 309.5,-98 463.5,-98 463.5,-128.5"/>
<text text-anchor="start" x="317.5" y="-115" font-family="Helvetica,sans-Serif" font-size="10.00">CameraManagement2D.Camera</text>
<text text-anchor="middle" x="386.5" y="-103.75" font-family="Helvetica,sans-Serif" font-size="10.00">PanModule</text>
</a>
</g>
</g>
<!-- Node1&#45;&gt;Node4 -->
<g id="edge3_Node000001_Node000004" class="edge">
<title>Node1&#45;&gt;Node4</title>
<g id="a_edge3_Node000001_Node000004"><a xlink:title=" ">
<path fill="none" stroke="#63b8ff" d="M285.19,-99.91C293.18,-100.97 301.23,-102.04 309.1,-103.09"/>
<polygon fill="#63b8ff" stroke="#63b8ff" points="285.84,-96.47 275.47,-98.62 284.92,-103.41 285.84,-96.47"/>
</a>
</g>
</g>
<!-- Node5 -->
<g id="Node000005" class="node">
<title>Node5</title>
<g id="a_Node000005"><a xlink:href="class_camera_management2_d_1_1_camera_smoothing_module.html" target="_top" xlink:title="A module for smoothing camera movement, including position, zoom, and rotation. This class extends th...">
<polygon fill="white" stroke="#666666" points="463.5,-79.5 309.5,-79.5 309.5,-49 463.5,-49 463.5,-79.5"/>
<text text-anchor="start" x="317.5" y="-66" font-family="Helvetica,sans-Serif" font-size="10.00">CameraManagement2D.Camera</text>
<text text-anchor="middle" x="386.5" y="-54.75" font-family="Helvetica,sans-Serif" font-size="10.00">SmoothingModule</text>
</a>
</g>
</g>
<!-- Node1&#45;&gt;Node5 -->
<g id="edge4_Node000001_Node000005" class="edge">
<title>Node1&#45;&gt;Node5</title>
<g id="a_edge4_Node000001_Node000005"><a xlink:title=" ">
<path fill="none" stroke="#63b8ff" d="M285.19,-77.06C293.18,-76.04 301.23,-75.01 309.1,-74"/>
<polygon fill="#63b8ff" stroke="#63b8ff" points="284.94,-73.56 275.47,-78.3 285.83,-80.5 284.94,-73.56"/>
</a>
</g>
</g>
<!-- Node6 -->
<g id="Node000006" class="node">
<title>Node6</title>
<g id="a_Node000006"><a xlink:href="class_camera_management2_d_1_1_tracker_camera_module.html" target="_top" xlink:title="A camera module that tracks multiple objects and adjusts the camera&#39;s state to ensure all tracked obj...">
<polygon fill="white" stroke="#666666" points="463.12,-30.5 309.88,-30.5 309.88,0 463.12,0 463.12,-30.5"/>
<text text-anchor="start" x="317.88" y="-17" font-family="Helvetica,sans-Serif" font-size="10.00">CameraManagement2D.Tracker</text>
<text text-anchor="middle" x="386.5" y="-5.75" font-family="Helvetica,sans-Serif" font-size="10.00">CameraModule</text>
</a>
</g>
</g>
<!-- Node1&#45;&gt;Node6 -->
<g id="edge5_Node000001_Node000006" class="edge">
<title>Node1&#45;&gt;Node6</title>
<g id="a_edge5_Node000001_Node000006"><a xlink:title=" ">
<path fill="none" stroke="#63b8ff" d="M242.51,-67.9C262.81,-59 287.19,-48.68 309.5,-40.25 317.95,-37.06 327,-33.88 335.81,-30.9"/>
<polygon fill="#63b8ff" stroke="#63b8ff" points="241.11,-64.69 233.38,-71.93 243.94,-71.09 241.11,-64.69"/>
</a>
</g>
</g>
<!-- Node2 -->
<g id="Node000002" class="node">
<title>Node2</title>
<g id="a_Node000002"><a xlink:title=" ">
<polygon fill="white" stroke="#666666" points="83.5,-97.88 0,-97.88 0,-78.62 83.5,-78.62 83.5,-97.88"/>
<text text-anchor="middle" x="41.75" y="-84.38" font-family="Helvetica,sans-Serif" font-size="10.00">MonoBehaviour</text>
</a>
</g>
</g>
<!-- Node2&#45;&gt;Node1 -->
<g id="edge1_Node000001_Node000002" class="edge">
<title>Node2&#45;&gt;Node1</title>
<g id="a_edge1_Node000001_Node000002"><a xlink:title=" ">
<path fill="none" stroke="#63b8ff" d="M95.1,-88.25C102.85,-88.25 110.95,-88.25 119.06,-88.25"/>
<polygon fill="#63b8ff" stroke="#63b8ff" points="95.2,-84.75 85.2,-88.25 95.2,-91.75 95.2,-84.75"/>
</a>
</g>
</g>
</g>
</svg>
