<?xml version="1.0" encoding="UTF-8" standalone="no"?>
<!DOCTYPE svg PUBLIC "-//W3C//DTD SVG 1.1//EN"
 "http://www.w3.org/Graphics/SVG/1.1/DTD/svg11.dtd">
<!-- Generated by graphviz version 3.0.0 (20221109.1736)
 -->
<!-- Title: Graphical Class Hierarchy Pages: 1 -->
<svg width="478pt" height="235pt"
 viewBox="0.00 0.00 478.00 235.00" xmlns="http://www.w3.org/2000/svg" xmlns:xlink="http://www.w3.org/1999/xlink">
<g id="graph0" class="graph" transform="scale(1 1) rotate(0) translate(4 231)">
<title>Graphical Class Hierarchy</title>
<polygon fill="white" stroke="transparent" points="-4,4 -4,-231 474,-231 474,4 -4,4"/>
<!-- Node0 -->
<g id="node1" class="node">
<title>Node0</title>
<g id="a_node1"><a xlink:title=" ">
<polygon fill="white" stroke="#bfbfbf" points="0,-79 0,-98 84,-98 84,-79 0,-79"/>
<text text-anchor="middle" x="42" y="-86" font-family="Helvetica,sans-Serif" font-size="10.00">MonoBehaviour</text>
</a>
</g>
</g>
<!-- Node1 -->
<g id="node2" class="node">
<title>Node1</title>
<g id="a_node2"><a xlink:href="a00058.html" target="_top" xlink:title="An abstract base class for camera controllers.">
<polygon fill="white" stroke="black" points="120,-98.5 120,-128.5 277,-128.5 277,-98.5 120,-98.5"/>
<text text-anchor="start" x="128" y="-116.5" font-family="Helvetica,sans-Serif" font-size="10.00">Lvl3Mage.CameraManagement2</text>
<text text-anchor="middle" x="198.5" y="-105.5" font-family="Helvetica,sans-Serif" font-size="10.00">D.CameraController</text>
</a>
</g>
</g>
<!-- Node0&#45;&gt;Node1 -->
<g id="edge1" class="edge">
<title>Node0&#45;&gt;Node1</title>
<path fill="none" stroke="midnightblue" d="M94.49,-96.83C102.67,-98.15 111.27,-99.55 119.89,-100.94"/>
<polygon fill="midnightblue" stroke="midnightblue" points="94.83,-93.34 84.4,-95.2 93.72,-100.25 94.83,-93.34"/>
</g>
<!-- Node7 -->
<g id="node8" class="node">
<title>Node7</title>
<g id="a_node8"><a xlink:href="a00090.html" target="_top" xlink:title="A class that provides easy access to the scene camera, and allows for easy activation/deactivation of...">
<polygon fill="white" stroke="black" points="120,-49.5 120,-79.5 277,-79.5 277,-49.5 120,-49.5"/>
<text text-anchor="start" x="128" y="-67.5" font-family="Helvetica,sans-Serif" font-size="10.00">Lvl3Mage.CameraManagement2</text>
<text text-anchor="middle" x="198.5" y="-56.5" font-family="Helvetica,sans-Serif" font-size="10.00">D.SceneCamera</text>
</a>
</g>
</g>
<!-- Node0&#45;&gt;Node7 -->
<g id="edge7" class="edge">
<title>Node0&#45;&gt;Node7</title>
<path fill="none" stroke="midnightblue" d="M94.49,-80.5C102.67,-79.23 111.27,-77.89 119.89,-76.56"/>
<polygon fill="midnightblue" stroke="midnightblue" points="93.75,-77.07 84.4,-82.07 94.82,-83.99 93.75,-77.07"/>
</g>
<!-- Node2 -->
<g id="node3" class="node">
<title>Node2</title>
<g id="a_node3"><a xlink:href="a00062.html" target="_top" xlink:title="Manages multiple camera controllers, allowing switching between them.">
<polygon fill="white" stroke="black" points="313,-196.5 313,-226.5 470,-226.5 470,-196.5 313,-196.5"/>
<text text-anchor="start" x="321" y="-214.5" font-family="Helvetica,sans-Serif" font-size="10.00">Lvl3Mage.CameraManagement2</text>
<text text-anchor="middle" x="391.5" y="-203.5" font-family="Helvetica,sans-Serif" font-size="10.00">D.CameraModuleManager</text>
</a>
</g>
</g>
<!-- Node1&#45;&gt;Node2 -->
<g id="edge2" class="edge">
<title>Node1&#45;&gt;Node2</title>
<path fill="none" stroke="midnightblue" d="M227.29,-134.77C249.52,-150.99 281.99,-172.94 313,-187.5 320.01,-190.79 327.59,-193.78 335.16,-196.44"/>
<polygon fill="midnightblue" stroke="midnightblue" points="229.13,-131.78 219.01,-128.65 224.97,-137.41 229.13,-131.78"/>
</g>
<!-- Node3 -->
<g id="node4" class="node">
<title>Node3</title>
<g id="a_node4"><a xlink:href="a00066.html" target="_top" xlink:title="A camera controller module that allows for panning and zooming of the camera based on user input.">
<polygon fill="white" stroke="black" points="313,-147.5 313,-177.5 470,-177.5 470,-147.5 313,-147.5"/>
<text text-anchor="start" x="321" y="-165.5" font-family="Helvetica,sans-Serif" font-size="10.00">Lvl3Mage.CameraManagement2</text>
<text text-anchor="middle" x="391.5" y="-154.5" font-family="Helvetica,sans-Serif" font-size="10.00">D.CameraPanModule</text>
</a>
</g>
</g>
<!-- Node1&#45;&gt;Node3 -->
<g id="edge3" class="edge">
<title>Node1&#45;&gt;Node3</title>
<path fill="none" stroke="midnightblue" d="M267.91,-131.05C288.88,-136.43 311.76,-142.3 332.01,-147.49"/>
<polygon fill="midnightblue" stroke="midnightblue" points="268.66,-127.63 258.1,-128.53 266.92,-134.41 268.66,-127.63"/>
</g>
<!-- Node4 -->
<g id="node5" class="node">
<title>Node4</title>
<g id="a_node5"><a xlink:href="a00070.html" target="_top" xlink:title=" ">
<polygon fill="white" stroke="black" points="313,-98.5 313,-128.5 470,-128.5 470,-98.5 313,-98.5"/>
<text text-anchor="start" x="321" y="-116.5" font-family="Helvetica,sans-Serif" font-size="10.00">Lvl3Mage.CameraManagement2</text>
<text text-anchor="middle" x="391.5" y="-105.5" font-family="Helvetica,sans-Serif" font-size="10.00">D.CameraShakeModule</text>
</a>
</g>
</g>
<!-- Node1&#45;&gt;Node4 -->
<g id="edge4" class="edge">
<title>Node1&#45;&gt;Node4</title>
<path fill="none" stroke="midnightblue" d="M287.19,-113.5C295.76,-113.5 304.42,-113.5 312.88,-113.5"/>
<polygon fill="midnightblue" stroke="midnightblue" points="287.19,-110 277.19,-113.5 287.19,-117 287.19,-110"/>
</g>
<!-- Node5 -->
<g id="node6" class="node">
<title>Node5</title>
<g id="a_node6"><a xlink:href="a00074.html" target="_top" xlink:title="A module for smoothing camera movement, including position, zoom, and rotation. This class extends th...">
<polygon fill="white" stroke="black" points="313,-49.5 313,-79.5 470,-79.5 470,-49.5 313,-49.5"/>
<text text-anchor="start" x="321" y="-67.5" font-family="Helvetica,sans-Serif" font-size="10.00">Lvl3Mage.CameraManagement2</text>
<text text-anchor="middle" x="391.5" y="-56.5" font-family="Helvetica,sans-Serif" font-size="10.00">D.CameraSmoothingModule</text>
</a>
</g>
</g>
<!-- Node1&#45;&gt;Node5 -->
<g id="edge5" class="edge">
<title>Node1&#45;&gt;Node5</title>
<path fill="none" stroke="midnightblue" d="M267.91,-95.95C288.88,-90.57 311.76,-84.7 332.01,-79.51"/>
<polygon fill="midnightblue" stroke="midnightblue" points="266.92,-92.59 258.1,-98.47 268.66,-99.37 266.92,-92.59"/>
</g>
<!-- Node6 -->
<g id="node7" class="node">
<title>Node6</title>
<g id="a_node7"><a xlink:href="a00094.html" target="_top" xlink:title="A camera module that tracks multiple objects and adjusts the camera&#39;s state to ensure all tracked obj...">
<polygon fill="white" stroke="black" points="313,-0.5 313,-30.5 470,-30.5 470,-0.5 313,-0.5"/>
<text text-anchor="start" x="321" y="-18.5" font-family="Helvetica,sans-Serif" font-size="10.00">Lvl3Mage.CameraManagement2</text>
<text text-anchor="middle" x="391.5" y="-7.5" font-family="Helvetica,sans-Serif" font-size="10.00">D.TrackerCameraModule</text>
</a>
</g>
</g>
<!-- Node1&#45;&gt;Node6 -->
<g id="edge6" class="edge">
<title>Node1&#45;&gt;Node6</title>
<path fill="none" stroke="midnightblue" d="M270.41,-93.73C272.69,-92.41 274.89,-91 277,-89.5 299.01,-73.83 291.08,-56.3 313,-40.5 318.39,-36.61 324.41,-33.31 330.66,-30.51"/>
<polygon fill="midnightblue" stroke="midnightblue" points="268.61,-90.72 261.32,-98.42 271.82,-96.95 268.61,-90.72"/>
</g>
</g>
</svg>
