<?xml version="1.0" encoding="UTF-8" standalone="no"?>
<!DOCTYPE svg PUBLIC "-//W3C//DTD SVG 1.1//EN"
 "http://www.w3.org/Graphics/SVG/1.1/DTD/svg11.dtd">
<!-- Generated by graphviz version 3.0.0 (20221109.1736)
 -->
<!-- Title: Graphical Class Hierarchy Pages: 1 -->
<svg width="478pt" height="186pt"
 viewBox="0.00 0.00 478.00 186.00" xmlns="http://www.w3.org/2000/svg" xmlns:xlink="http://www.w3.org/1999/xlink">
<g id="graph0" class="graph" transform="scale(1 1) rotate(0) translate(4 182)">
<title>Graphical Class Hierarchy</title>
<polygon fill="white" stroke="transparent" points="-4,4 -4,-182 474,-182 474,4 -4,4"/>
<!-- Node0 -->
<g id="node1" class="node">
<title>Node0</title>
<g id="a_node1"><a xlink:title=" ">
<polygon fill="white" stroke="#bfbfbf" points="0,-54 0,-73 84,-73 84,-54 0,-54"/>
<text text-anchor="middle" x="42" y="-61" font-family="Helvetica,sans-Serif" font-size="10.00">MonoBehaviour</text>
</a>
</g>
</g>
<!-- Node1 -->
<g id="node2" class="node">
<title>Node1</title>
<g id="a_node2"><a xlink:href="a00051.html" target="_top" xlink:title="An abstract base class for camera controllers.">
<polygon fill="white" stroke="black" points="120,-73.5 120,-103.5 277,-103.5 277,-73.5 120,-73.5"/>
<text text-anchor="start" x="128" y="-91.5" font-family="Helvetica,sans-Serif" font-size="10.00">Lvl3Mage.CameraManagement2</text>
<text text-anchor="middle" x="198.5" y="-80.5" font-family="Helvetica,sans-Serif" font-size="10.00">D.CameraController</text>
</a>
</g>
</g>
<!-- Node0&#45;&gt;Node1 -->
<g id="edge1" class="edge">
<title>Node0&#45;&gt;Node1</title>
<path fill="none" stroke="midnightblue" d="M94.49,-71.83C102.67,-73.15 111.27,-74.55 119.89,-75.94"/>
<polygon fill="midnightblue" stroke="midnightblue" points="94.83,-68.34 84.4,-70.2 93.72,-75.25 94.83,-68.34"/>
</g>
<!-- Node6 -->
<g id="node7" class="node">
<title>Node6</title>
<g id="a_node7"><a xlink:href="a00075.html" target="_top" xlink:title="A class that provides easy access to the scene camera, and allows for easy activation/deactivation of...">
<polygon fill="white" stroke="black" points="120,-24.5 120,-54.5 277,-54.5 277,-24.5 120,-24.5"/>
<text text-anchor="start" x="128" y="-42.5" font-family="Helvetica,sans-Serif" font-size="10.00">Lvl3Mage.CameraManagement2</text>
<text text-anchor="middle" x="198.5" y="-31.5" font-family="Helvetica,sans-Serif" font-size="10.00">D.SceneCamera</text>
</a>
</g>
</g>
<!-- Node0&#45;&gt;Node6 -->
<g id="edge6" class="edge">
<title>Node0&#45;&gt;Node6</title>
<path fill="none" stroke="midnightblue" d="M94.49,-55.5C102.67,-54.23 111.27,-52.89 119.89,-51.56"/>
<polygon fill="midnightblue" stroke="midnightblue" points="93.75,-52.07 84.4,-57.07 94.82,-58.99 93.75,-52.07"/>
</g>
<!-- Node2 -->
<g id="node3" class="node">
<title>Node2</title>
<g id="a_node3"><a xlink:href="a00055.html" target="_top" xlink:title="Manages multiple camera controllers, allowing switching between them.">
<polygon fill="white" stroke="black" points="313,-147.5 313,-177.5 470,-177.5 470,-147.5 313,-147.5"/>
<text text-anchor="start" x="321" y="-165.5" font-family="Helvetica,sans-Serif" font-size="10.00">Lvl3Mage.CameraManagement2</text>
<text text-anchor="middle" x="391.5" y="-154.5" font-family="Helvetica,sans-Serif" font-size="10.00">D.CameraModuleManager</text>
</a>
</g>
</g>
<!-- Node1&#45;&gt;Node2 -->
<g id="edge2" class="edge">
<title>Node1&#45;&gt;Node2</title>
<path fill="none" stroke="midnightblue" d="M240.5,-107.92C261.87,-117.69 288.58,-129.37 313,-138.5 321.31,-141.61 330.23,-144.64 338.94,-147.44"/>
<polygon fill="midnightblue" stroke="midnightblue" points="241.93,-104.73 231.38,-103.72 239,-111.08 241.93,-104.73"/>
</g>
<!-- Node3 -->
<g id="node4" class="node">
<title>Node3</title>
<g id="a_node4"><a xlink:href="a00059.html" target="_top" xlink:title="A camera controller module that allows for panning and zooming of the camera based on user input.">
<polygon fill="white" stroke="black" points="313,-98.5 313,-128.5 470,-128.5 470,-98.5 313,-98.5"/>
<text text-anchor="start" x="321" y="-116.5" font-family="Helvetica,sans-Serif" font-size="10.00">Lvl3Mage.CameraManagement2</text>
<text text-anchor="middle" x="391.5" y="-105.5" font-family="Helvetica,sans-Serif" font-size="10.00">D.CameraPanModule</text>
</a>
</g>
</g>
<!-- Node1&#45;&gt;Node3 -->
<g id="edge3" class="edge">
<title>Node1&#45;&gt;Node3</title>
<path fill="none" stroke="midnightblue" d="M287.19,-99.98C295.76,-101.1 304.42,-102.23 312.88,-103.34"/>
<polygon fill="midnightblue" stroke="midnightblue" points="287.56,-96.5 277.19,-98.67 286.65,-103.44 287.56,-96.5"/>
</g>
<!-- Node4 -->
<g id="node5" class="node">
<title>Node4</title>
<g id="a_node5"><a xlink:href="a00063.html" target="_top" xlink:title="A module for smoothing camera movement, including position, zoom, and rotation. This class extends th...">
<polygon fill="white" stroke="black" points="313,-49.5 313,-79.5 470,-79.5 470,-49.5 313,-49.5"/>
<text text-anchor="start" x="321" y="-67.5" font-family="Helvetica,sans-Serif" font-size="10.00">Lvl3Mage.CameraManagement2</text>
<text text-anchor="middle" x="391.5" y="-56.5" font-family="Helvetica,sans-Serif" font-size="10.00">D.CameraSmoothingModule</text>
</a>
</g>
</g>
<!-- Node1&#45;&gt;Node4 -->
<g id="edge4" class="edge">
<title>Node1&#45;&gt;Node4</title>
<path fill="none" stroke="midnightblue" d="M287.19,-77.48C295.76,-76.4 304.42,-75.32 312.88,-74.25"/>
<polygon fill="midnightblue" stroke="midnightblue" points="286.67,-74.02 277.19,-78.74 287.55,-80.96 286.67,-74.02"/>
</g>
<!-- Node5 -->
<g id="node6" class="node">
<title>Node5</title>
<g id="a_node6"><a xlink:href="a00079.html" target="_top" xlink:title="A camera module that tracks multiple objects and adjusts the camera&#39;s state to ensure all tracked obj...">
<polygon fill="white" stroke="black" points="313,-0.5 313,-30.5 470,-30.5 470,-0.5 313,-0.5"/>
<text text-anchor="start" x="321" y="-18.5" font-family="Helvetica,sans-Serif" font-size="10.00">Lvl3Mage.CameraManagement2</text>
<text text-anchor="middle" x="391.5" y="-7.5" font-family="Helvetica,sans-Serif" font-size="10.00">D.TrackerCameraModule</text>
</a>
</g>
</g>
<!-- Node1&#45;&gt;Node5 -->
<g id="edge5" class="edge">
<title>Node1&#45;&gt;Node5</title>
<path fill="none" stroke="midnightblue" d="M264.98,-69.72C269.1,-68.08 273.14,-66.34 277,-64.5 294.36,-56.24 295.68,-48.86 313,-40.5 320.64,-36.81 328.95,-33.48 337.21,-30.54"/>
<polygon fill="midnightblue" stroke="midnightblue" points="263.41,-66.57 255.28,-73.36 265.87,-73.12 263.41,-66.57"/>
</g>
</g>
</svg>
